<svg data-v-d3f97b9e="" xmlns="http://www.w3.org/2000/svg" viewBox="0 0 256.80244451402234 60"><!----><!----><linearGradient data-v-d3f97b9e="" gradientTransform="rotate(25)" id="ae9b82de-a929-4a02-b60a-5ab2c14cde91" x1="0%" y1="0%" x2="100%" y2="0%"><stop data-v-d3f97b9e="" offset="0%" style="stop-color: rgb(219, 36, 40); stop-opacity: 1;"></stop><stop data-v-d3f97b9e="" offset="100%" style="stop-color: rgb(160, 153, 139); stop-opacity: 1;"></stop></linearGradient><g data-v-d3f97b9e="" id="69906907-538a-42b8-a0cd-d03f426eca1e" fill="url(#ae9b82de-a929-4a02-b60a-5ab2c14cde91)" transform="matrix(6.109979823280842,0,0,6.109979823280842,-2.8007264063489856e-8,-11.670061748471603)"><path d="M0.15 9.37L0.15 1.93L2.34 1.93L2.34 1.93Q2.70 3.25 3.83 7.21L3.83 7.21L4.69 7.21L4.69 7.21Q4.72 7.21 4.97 6.26L4.97 6.26L4.97 6.26Q5.52 4.40 6.19 1.93L6.19 1.93L8.22 1.93L8.22 8.29L8.33 8.29L8.33 9.45L7.72 9.45L7.72 9.66L8.33 9.66L8.33 11.73L6.61 11.73L6.61 10.97L6.82 10.97L6.82 8.62L6.46 8.62L6.46 7.44L6.24 7.44L6.23 7.51L6.04 7.51L6.04 9.18L5.45 9.18L5.45 9.96L4.94 9.96L4.94 11.29L3.73 11.29L3.73 10.44L2.98 10.44L2.98 9.28L2.54 9.28L2.54 8.07L2.28 8.07L2.28 8.07Q2.27 7.97 2.12 7.44L2.12 7.44L3.86 7.44L3.81 7.21L2.07 7.21L2.12 7.44L1.89 7.44L1.89 8.96L2.00 8.96L2.00 10.64L1.57 10.64L1.57 10.94L2.00 10.94L2.00 11.38L0.44 11.38L0.44 9.37L0.15 9.37ZM1.89 6.51L1.87 6.51L1.87 6.63L1.87 6.63Q1.87 6.78 1.89 7.21L1.89 7.21L2.05 7.21L2.05 7.21Q1.89 6.55 1.89 6.51L1.89 6.51ZM6.47 6.53L6.46 6.53L6.31 7.21L6.46 7.21L6.46 7.21Q6.47 6.79 6.47 6.60L6.47 6.60L6.47 6.53ZM1.87 7.21L1.33 7.21L1.33 7.44L1.87 7.44L1.87 7.21ZM6.30 7.21L4.72 7.21L4.67 7.44L6.23 7.44L6.23 7.44Q6.30 7.26 6.30 7.21L6.30 7.21ZM7.67 7.21L6.47 7.21L6.47 7.44L7.67 7.44L7.67 7.21ZM4.63 7.44L3.89 7.44L3.89 7.44Q4.01 7.97 4.04 7.97L4.04 7.97L4.24 7.97L4.24 8.85L4.55 8.85L4.55 7.49L4.63 7.49L4.63 7.44ZM8.33 9.66L8.33 9.45L9.32 9.45L9.32 9.66L8.33 9.66ZM8.43 10.12L8.43 9.74L8.51 9.74L8.51 9.89L8.65 9.89L8.65 9.78L8.65 9.78Q8.65 9.74 8.68 9.74L8.68 9.74L8.71 9.74L8.71 9.74Q8.74 9.75 8.74 9.78L8.74 9.78L8.74 10.09L8.74 10.09Q8.74 10.12 8.71 10.12L8.71 10.12L8.65 10.12L8.65 9.97L8.51 9.97L8.51 10.12L8.43 10.12ZM8.43 10.62L8.43 10.24L8.66 10.24L8.66 10.24Q8.70 10.25 8.70 10.27L8.70 10.27L8.70 10.32L8.51 10.32L8.51 10.39L8.66 10.39L8.66 10.47L8.51 10.47L8.51 10.62L8.43 10.62ZM8.45 10.74L8.45 10.74L8.68 10.74L8.68 10.74Q8.71 10.74 8.71 10.77L8.71 10.77L8.71 10.80L8.53 11.03L8.71 11.03L8.71 11.12L8.43 11.12L8.43 11.12Q8.39 11.12 8.39 11.07L8.39 11.07L8.39 11.07Q8.45 10.99 8.58 10.82L8.58 10.82L8.42 10.82L8.42 10.77L8.42 10.77Q8.42 10.74 8.45 10.74ZM8.43 11.53L8.43 11.23L8.51 11.23L8.51 11.45L8.53 11.53L8.61 11.53L8.61 11.53Q8.65 11.53 8.65 11.50L8.65 11.50L8.65 11.27L8.65 11.27Q8.65 11.23 8.68 11.23L8.68 11.23L8.71 11.23L8.71 11.23Q8.74 11.24 8.74 11.27L8.74 11.27L8.74 11.46L8.74 11.46Q8.74 11.61 8.59 11.61L8.59 11.61L8.57 11.61L8.57 11.61Q8.47 11.61 8.43 11.53L8.43 11.53ZM0 11.61L0 11.46L1.76 11.46L1.76 11.61L0 11.61ZM10.67 7.57L12.35 1.96L14 1.96L14 1.96Q14.03 2.10 15.60 7.29L15.60 7.29L15.90 7.29L15.90 10.51L15.22 10.51L15.22 10.76L15.90 10.76L15.90 11.45L14.08 11.45L14.08 9.47L11.86 9.47L11.86 10.32L10.95 10.32L10.95 11.73L9.30 11.73L9.30 11.63L9.43 11.63L9.43 10.32L10.11 10.32L10.11 7.57L10.67 7.57ZM13.16 4.71L13.13 4.71L13.13 4.72L13.13 4.72Q12.91 5.89 12.30 8.40L12.30 8.40L13.84 8.40L13.84 7.29L13.71 7.29L13.71 7.29Q13.16 4.92 13.16 4.71L13.16 4.71ZM8.83 7.57L8.83 7.28L10.11 7.28L10.11 7.57L8.83 7.57ZM14.08 11.73L14.08 11.57L16.28 11.57L16.28 11.73L14.08 11.73ZM16.47 1.96L16.47 1.96L18.40 1.96L18.40 1.96Q18.40 3.37 18.89 4.35L18.89 4.35L18.89 4.35Q19.41 5.64 19.61 6.39L19.61 6.39L19.61 6.41L19.63 6.41L19.63 6.41Q19.87 5.50 20.64 3.62L20.64 3.62L20.64 3.62Q20.84 2.72 20.84 1.96L20.84 1.96L22.65 1.96L22.65 1.96Q22.48 3.43 22.24 4.13L22.24 4.13L21.15 6.59L20.49 6.59L20.49 8.28L19.50 8.28L19.50 8.61L20.49 8.61L20.49 11.73L18.62 11.73L18.62 11.73Q18.59 11.73 18.59 11.70L18.59 11.70L18.59 10.17L18.29 10.17L18.29 7.46L18.85 7.46L18.85 7.21L18.25 7.21L18.25 7.21Q18.17 7.12 17.11 4.67L17.11 4.67L17.11 4.67Q16.67 3.68 16.67 3.49L16.67 3.49L17.47 3.49L17.47 3.14L16.60 3.14L16.60 3.14Q16.47 2.06 16.47 1.96ZM15.31 3.49L15.31 3.14L16.60 3.14L16.65 3.49L15.31 3.49ZM20.49 8.61L20.49 8.28L21.30 8.28L21.30 8.61L20.49 8.61ZM22.99 10.60L22.99 2.00L24.90 2.00L24.90 3.83L24.90 3.83Q24.90 4.74 24.87 5.80L24.87 5.80L24.87 5.82L24.89 5.82L24.89 5.82Q25.12 5.37 26.18 3.51L26.18 3.51L26.18 3.51Q26.72 2.57 26.72 2.09L26.72 2.09L26.72 2.00L28.68 2.00L28.68 2.04L28.68 2.04Q28.68 2.98 27.92 4.09L27.92 4.09L26.76 5.78L27.90 8.21L28.93 8.21L28.93 8.50L27.77 8.50L27.77 8.52L27.77 8.52Q28.05 9.13 28.13 9.24L28.13 9.24L28.34 9.24L28.34 10.12L28.64 10.12L28.64 11.72L28.64 11.72Q28.14 11.73 27.90 11.73L27.90 11.73L27.43 11.73L27.43 11.73Q27.17 11.73 26.74 11.72L26.74 11.72L26.74 10.65L26.31 10.65L26.31 9.24L26.07 9.24L25.81 8.50L27.75 8.50L27.75 8.21L25.97 8.21L25.97 8.21Q25.97 8.18 25.66 7.23L25.66 7.23L25.64 7.23L25.64 7.23Q25.48 7.54 24.99 8.21L24.99 8.21L25.81 8.21L25.81 8.50L24.90 8.50L24.90 8.98L24.79 8.98L24.79 11.20L24.90 11.20L24.90 11.70L24.90 11.70Q24.90 11.73 24.87 11.73L24.87 11.73L23.02 11.73L23.02 11.73Q22.99 11.73 22.99 11.70L22.99 11.70L22.99 10.93L23.86 10.93L23.86 10.60L22.99 10.60ZM24.97 8.21L23.78 8.21L23.78 8.50L24.89 8.50L24.89 8.50Q24.89 8.45 24.97 8.21L24.97 8.21ZM32.98 1.95L32.98 1.95L32.98 1.95Q35.08 1.95 35.75 3.42L35.75 3.42L35.75 3.42Q36.12 4.14 36.12 6.19L36.12 6.19L36.12 6.23L35.40 6.23L35.40 6.56L36.12 6.56L36.12 10.10L35.64 10.10L35.64 11.37L34.69 11.37L34.69 11.73L31.37 11.73L31.37 11.37L30.97 11.37L30.97 10.10L30.11 10.10L30.11 9.10L30.62 9.10L30.62 8.57L30.11 8.57L30.11 9.10L28.90 9.10L28.90 8.57L29.82 8.57L29.82 8.57Q29.80 7.38 29.80 6.74L29.80 6.74L29.80 5.91L29.80 5.91Q29.80 3.58 30.59 2.80L30.59 2.80L30.59 2.80Q31.31 1.95 32.98 1.95ZM31.78 5.32L31.78 5.32L31.80 5.32L31.78 5.35L31.78 6.23L31.05 6.23L31.05 6.56L31.78 6.56L31.78 6.56Q31.77 8.67 31.77 9.75L31.77 9.75L31.77 10.10L33.40 10.10L33.40 9.56L34.15 9.56L34.15 9.54L34.15 9.54Q34.15 8.54 34.14 6.75L34.14 6.75L34.14 6.75Q34.14 6.68 34.15 6.38L34.15 6.38L34.15 6.38Q34.15 4.45 33.93 4.01L33.93 4.01L33.93 4.01Q33.69 3.58 33.07 3.58L33.07 3.58L32.83 3.58L32.83 3.58Q32.09 3.58 31.91 4.24L31.91 4.24L31.91 4.24Q31.83 4.56 31.78 5.32ZM36.12 6.56L36.12 6.23L37.30 6.23L37.30 6.56L36.12 6.56ZM36.85 8.85L36.85 1.91L38.80 1.91L38.80 5.94L38.42 5.94L38.42 10.10L41.32 10.10L41.32 10.97L40.75 10.97L40.75 11.17L41.32 11.17L41.32 11.73L39.44 11.73L39.44 11.58L36.87 11.58L36.87 11.58Q36.85 11.42 36.85 11.33L36.85 11.33L36.85 9.14L37.34 9.14L37.34 8.85L36.85 8.85ZM41.32 11.17L41.32 10.97L42.03 10.97L42.03 11.17L41.32 11.17Z"></path></g><!----><!----></svg>